<svg width="16" height="17" fill="none" xmlns="http://www.w3.org/2000/svg"><path d="M2 4.626a.5.5 0 0 0 0 1v-1Zm12 1a.5.5 0 0 0 0-1v1Zm-10.667-.5v-.5h-.5v.5h.5Zm9.334 0h.5v-.5h-.5v.5Zm-.44 6.532.481.139-.48-.14ZM9.15 14.34l.084.493-.084-.493Zm-2.298 0 .083-.493-.083.493Zm-.105-.018-.084.493.084-.493Zm-2.974-2.665-.48.139.48-.14Zm5.482 2.665-.083-.492.083.492ZM5.228 4.097l.454.21-.454-.21Zm.65-.872-.333-.372.334.372Zm.974-.583.174.47-.174-.47Zm2.296 0 .174-.468-.174.468Zm1.624 1.455.454-.21-.454.21ZM2 5.627h12v-1H2v1Zm7.171 8.204-.105.017.167.986.105-.018-.167-.986Zm-2.237.017-.105-.018-.167.986.105.018.167-.986Zm5.233-8.722v3.429h1V5.126h-1ZM3.833 8.555V5.126h-1v3.429h1Zm8.334 0a10.69 10.69 0 0 1-.42 2.964l.961.278c.304-1.054.459-2.145.459-3.242h-1Zm-3.101 5.293c-.706.12-1.426.12-2.132 0l-.167.986c.816.138 1.65.138 2.466 0l-.167-.986Zm-2.237-.018a3.251 3.251 0 0 1-2.577-2.31l-.96.277a4.251 4.251 0 0 0 3.37 3.02l.167-.986Zm-2.577-2.31a10.689 10.689 0 0 1-.419-2.965h-1c0 1.097.155 2.188.459 3.242l.96-.278Zm5.086 3.296a4.251 4.251 0 0 0 3.37-3.02l-.96-.277a3.251 3.251 0 0 1-2.577 2.312l.167.986ZM5.5 5.127c0-.28.061-.557.182-.819l-.908-.42c-.18.391-.274.812-.274 1.24h1Zm.182-.819c.121-.262.3-.503.53-.71l-.667-.744a3.19 3.19 0 0 0-.77 1.035l.907.42Zm.53-.71c.23-.206.507-.372.814-.486l-.348-.937c-.42.156-.806.386-1.133.679l.667.745Zm.814-.486c.307-.114.639-.173.974-.173v-1c-.452 0-.902.08-1.322.236l.348.937ZM8 2.938c.335 0 .667.059.974.173l.348-.937A3.804 3.804 0 0 0 8 1.938v1Zm.974.173c.307.114.584.28.814.487l.667-.745a3.545 3.545 0 0 0-1.133-.68l-.348.938Zm.814.487c.23.206.409.447.53.71l.908-.42a3.189 3.189 0 0 0-.771-1.035l-.667.745Zm.53.71c.12.26.182.539.182.818h1c0-.427-.094-.848-.274-1.238l-.908.42ZM3.333 5.625h9.334v-1H3.333v1Z" fill="red" fill-opacity=".8"/><path d="M6.667 8.438v2.666m2.666-2.666v2.666" stroke="red" stroke-opacity=".8" stroke-linecap="round"/></svg>